<?xml version="1.0" encoding="iso-8859-1"?>
<!-- Generator: Adobe Illustrator 19.0.0, SVG Export Plug-In . SVG Version: 6.00 Build 0)  -->
<svg version="1.1" id="Layer_1" xmlns="http://www.w3.org/2000/svg" xmlns:xlink="http://www.w3.org/1999/xlink" x="0px" y="0px"
	 viewBox="0 0 448.006 448.006" style="enable-background:new 0 0 448.006 448.006;" xml:space="preserve">
<g transform="translate(0 -1020.36)">
	<path style="fill:#EE746C;" d="M405.15,1207.454h-45.2c-1.6,0-3-1.3-3-3c0-0.6,0.2-1.2,0.5-1.7l23.7-35.6l1-1.5l-0.5-6.3h-82.1
		l-35.6,46.9c-0.6,0.7-1.5,1.2-2.4,1.2h-72.4c-2.2,0-4.3-0.3-6.2-1l-41.3-14.3c-1.3-0.5-2.8-0.7-4.3-0.7h-46.8c-3.6,0-7,1.5-9.4,4.1
		l-63.9,67.5l105.4-26.3c1.5-0.4,3-0.6,4.6-0.6c7.1,0,13.6,3.9,16.9,10.2l31.2,60.1c2.2,4.3,6.7,7,11.5,7h95.2c4,0,7.7-1.8,10.2-5
		l40.6-52c3.6-4.6,9.2-7.3,15-7.3h54.3c2.8,0,5.5,0.6,8.1,1.8l23.1,10.9L405.15,1207.454z"/>
	<path style="fill:#29A3EC;" d="M87.95,1284.954c26.3,0,47.5,21.2,47.5,47.5s-21.2,47.5-47.5,47.5s-47.5-21.2-47.5-47.5
		C40.45,1306.054,61.65,1284.954,87.95,1284.954z"/>
	<path style="fill:#3CDEF6;" d="M87.95,1301.454c17.2,0,31,13.8,31,31s-13.8,31-31,31s-31-13.8-31-31
		C56.95,1315.254,70.75,1301.454,87.95,1301.454z"/>
	<path style="fill:#FFFFFF;" d="M72.05,1340.454c4.4-0.1,7.9-3.7,7.9-8.1s3.4-7.9,8-7.9c4.4-0.1,7.9-3.7,7.9-8.1
		c-0.1-4.4-3.7-7.9-8.1-7.9c-13,0.2-23.8,10.9-23.8,23.9c-0.1,4.4,3.5,8,7.9,8.1C71.95,1340.454,72.05,1340.454,72.05,1340.454
		L72.05,1340.454z"/>
	<path style="fill:#5A3392;" d="M36.95,1311.054c0-4.4,3.6-8,8-8l0,0c4.4,0,8,3.6,8,8l0,0c0,4.4-3.6,8-8,8l0,0
		C40.55,1319.054,36.95,1315.454,36.95,1311.054L36.95,1311.054z"/>
	<path style="fill:#29A3EC;" d="M383.95,1284.954c26.3,0,47.5,21.2,47.5,47.5s-21.2,47.5-47.5,47.5s-47.5-21.2-47.5-47.5
		C336.45,1306.054,357.65,1284.954,383.95,1284.954z"/>
	<path style="fill:#3CDEF6;" d="M383.95,1301.454c17.2,0,31,13.8,31,31s-13.8,31-31,31s-31-13.8-31-31
		C352.95,1315.254,366.75,1301.454,383.95,1301.454z"/>
	<path style="fill:#FFFFFF;" d="M368.05,1340.454c4.4-0.1,7.9-3.7,7.9-8.1s3.4-7.9,8-7.9c4.4-0.1,7.9-3.7,7.9-8.1s-3.7-7.9-8.1-7.9
		c-13,0.2-23.8,10.9-23.8,23.9c-0.1,4.4,3.5,8,7.9,8.1C367.95,1340.454,368.05,1340.454,368.05,1340.454L368.05,1340.454z"/>
	<path style="fill:#5A3392;" d="M332.95,1311.054c0-4.4,3.6-8,8-8l0,0c4.4,0,8,3.6,8,8l0,0c0,4.4-3.6,8-8,8l0,0
		C336.55,1319.054,332.95,1315.454,332.95,1311.054L332.95,1311.054z"/>
	<g>
		<path style="fill:#FB9761;" d="M212.35,1313.454h56.1l-47.2-106h-32.2c-2.2,0-4.3-0.3-6.2-1l-21.5-7.4L212.35,1313.454z"/>
		<path style="fill:#FB9761;" d="M134.05,1191.454h-38.9l20.9,46.9l6.5-1.6c1.5-0.4,3-0.6,4.6-0.6c7.1,0,13.6,3.9,16.9,10.2
			l31.2,60.1c2.2,4.3,6.7,7,11.5,7h1.7L134.05,1191.454z"/>
	</g>
	<path style="fill:#FFFFFF;" d="M262.85,1276.454c4.4-0.1,8.1,3.5,8.1,7.9c0.1,4.4-3.5,8.1-7.9,8.1c-0.1,0-0.2,0-0.2,0h-31.8
		c-4.4,0.1-8.1-3.5-8.1-7.9s3.5-8.1,7.9-8.1c0.1,0,0.2,0,0.2,0H262.85z"/>
	<path style="fill:#5A3392;" d="M138.05,1357.554c-11.6,23.2-37.8,35.4-63,29.4l0,0c-25.2-6-43.1-28.7-43-54.6c0-0.1,0-0.2,0-0.2
		c0.1-4.4,3.7-7.9,8.1-7.9s7.9,3.7,7.9,8.1c0,18.6,12.7,34.7,30.8,39s36.7-4.4,45-21s4.2-36.7-10.1-48.6s-34.7-12.5-49.6-1.3
		c-0.1,0-0.1,0.1-0.2,0.1c-3.6,2.6-8.6,1.8-11.2-1.7c-2.6-3.6-1.8-8.6,1.7-11.2c20.8-15.6,49.6-14.8,69.5,1.8
		C143.75,1306.054,149.65,1334.354,138.05,1357.554z M419.85,1289.454c-19.9-16.6-48.8-17.4-69.5-1.8c-3.6,2.6-4.3,7.6-1.7,11.2
		s7.6,4.3,11.2,1.7c0.1,0,0.1-0.1,0.2-0.1c14.9-11.2,35.3-10.6,49.6,1.3c14.3,11.9,18.5,32,10.1,48.6c-8.3,16.6-26.9,25.3-45,21
		s-30.8-20.4-30.7-39c0.1-4.4-3.5-8.1-7.9-8.1s-8.1,3.5-8.1,7.9c0,0.1,0,0.2,0,0.2c-0.1,25.9,17.8,48.6,43,54.6l0,0
		c25.2,6,51.4-6.2,63-29.4C445.65,1334.354,439.75,1306.054,419.85,1289.454z M443.65,1275.454c-2.2,1.1-4.8,1.2-7,0.1l-31.1-14.7
		l0,0c-1.1-0.5-2.2-0.8-3.4-0.8h-54.3c-2.5,0-4.8,1.1-6.3,3.1l-40.6,52c-4.5,5.8-11.5,9.2-18.9,9.2h-95.2c-8.9,0-17.2-5-21.3-12.9
		l-31.1-60.1c-1.7-3.3-5.4-5-9.1-4.1l-115.4,28.9c-4.3,1.1-8.6-1.5-9.7-5.8c-0.7-2.7,0.1-5.5,2-7.5l70.9-75
		c4.5-4.8,10.8-7.5,17.4-7.5h46.8c2.7,0,5.3,0.4,7.8,1.3l41.4,14.3c0.8,0.3,1.7,0.4,2.6,0.4h68.5l34.1-44.9c1.5-2,3.8-3.2,6.3-3.2
		h67.2l-15.5-32h-37.5c-4.4,0-8-3.6-8-8s3.6-8,8-8h42.6l0,0c3.1,0,5.9,1.8,7.2,4.5l21,43.5h9l0,0c4.4,0,8,3.6,8,8
		c0,1.6-0.5,3.1-1.3,4.4l-23.6,35.6h32c3,0,5.7,1.7,7.1,4.3l33,63.9C449.05,1268.554,447.55,1273.454,443.65,1275.454z
		 M422.05,1251.054l-20-38.6h-42.1c-4.4,0-8-3.6-8-8c0-1.6,0.5-3.1,1.3-4.5l23.7-35.6l0,0h-75l-34.1,44.9c-1.5,2-3.9,3.2-6.4,3.2
		h-72.4c-2.7,0-5.3-0.4-7.8-1.3l-41.3-14.3c-0.8-0.3-1.7-0.4-2.6-0.4h-46.8c-2.2,0-4.3,0.9-5.8,2.5l-52.2,55.1l88.7-22.2
		c10.7-2.7,22,2.4,27.1,12.2l31.2,60.1c1.4,2.7,4.1,4.3,7.1,4.3h95.2c2.5,0,4.8-1.1,6.3-3.1l40.6-52c4.5-5.8,11.6-9.2,18.9-9.2h54.3
		l0,0c3.5,0,7,0.8,10.2,2.3L422.05,1251.054z"/>
</g>
<g>
</g>
<g>
</g>
<g>
</g>
<g>
</g>
<g>
</g>
<g>
</g>
<g>
</g>
<g>
</g>
<g>
</g>
<g>
</g>
<g>
</g>
<g>
</g>
<g>
</g>
<g>
</g>
<g>
</g>
</svg>
