<?xml version="1.0" encoding="iso-8859-1"?>
<!-- Generator: Adobe Illustrator 19.0.0, SVG Export Plug-In . SVG Version: 6.00 Build 0)  -->
<svg version="1.1" id="Layer_1" xmlns="http://www.w3.org/2000/svg" xmlns:xlink="http://www.w3.org/1999/xlink" x="0px" y="0px"
	 viewBox="0 0 505.551 505.551" style="enable-background:new 0 0 505.551 505.551;" xml:space="preserve">
<polygon style="fill:#FFFFFF;" points="79.556,154.145 79.556,477.477 426.033,477.477 426.033,154.145 252.795,31.405 "/>
<polygon style="fill:#56ACE0;" points="107.611,449.422 107.611,168.874 252.795,65.773 397.978,168.874 397.978,449.422 "/>
<path style="fill:#FFC10D;" d="M252.795,168.874c-56.811,0-102.4,46.29-102.4,102.4c0,56.811,46.29,102.4,102.4,102.4
	c56.811,0,102.4-46.29,102.4-102.4C355.195,214.463,309.605,168.874,252.795,168.874z"/>
<g>
	<path style="fill:#194F82;" d="M498.975,170.277L260.51,2.649c-4.91-3.507-11.222-3.507-16.132,0L5.912,170.277
		c-6.312,4.208-7.715,13.326-3.507,19.638c4.208,6.312,13.326,7.715,19.638,3.507l29.458-20.34v318.422
		c0,7.715,6.312,14.027,14.027,14.027H440.06c7.715,0,14.027-6.312,14.027-14.027V173.082l29.458,20.34
		c6.312,4.91,15.43,2.805,19.638-3.507C507.392,183.603,505.989,175.186,498.975,170.277z M426.033,477.477H79.556V153.444
		L252.795,31.405l173.238,122.038V477.477z"/>
	<path style="fill:#194F82;" d="M218.427,199.734c-6.312,0-11.923,5.611-11.923,11.923v119.934c0,6.312,5.611,11.923,11.923,11.923
		c7.014,0,11.923-5.611,11.923-11.923v-35.77h20.34c48.395,0,48.395-46.992,48.395-47.693c0-46.29-48.395-47.693-48.395-47.693
		h-32.263V199.734z M275.238,247.427c0,0.701,0,23.847-23.847,23.847h-20.34v-47.693h20.34
		C250.69,223.581,275.238,222.879,275.238,247.427z"/>
	<path style="fill:#194F82;" d="M122.34,271.274c0,72.241,58.915,130.455,130.455,130.455c72.241,0,130.455-58.915,130.455-130.455
		c0-72.241-58.915-130.455-130.455-130.455C180.553,140.819,122.34,199.033,122.34,271.274z M355.195,271.274
		c0,56.811-46.29,102.4-102.4,102.4c-56.811,0-102.4-46.29-102.4-102.4c0-56.811,46.29-102.4,102.4-102.4
		C309.605,168.874,355.195,214.463,355.195,271.274z"/>
</g>
<g>
</g>
<g>
</g>
<g>
</g>
<g>
</g>
<g>
</g>
<g>
</g>
<g>
</g>
<g>
</g>
<g>
</g>
<g>
</g>
<g>
</g>
<g>
</g>
<g>
</g>
<g>
</g>
<g>
</g>
</svg>
